# xmcd
#
# Track frame offsets:
# 182
# 19692
# 38967
# 57737
# 76970
# 97702
# 127600
# 143050
# 163190
# 182207
# 199720
#
# Disc length: 3011 seconds
#
# Revision: 1
# Processed by: cddbd v1.4PL0 Copyright (c) Steve Scherf et al.
# Submitted via: CdCzar 4.3c
#
DISCID=8a0bc10b
DTITLE=Booker T. Laury - Booker In Paris
DYEAR=1900
DGENRE=blues
TTITLE0=Booker's Boogie
TTITLE1=Next Time You See Me
TTITLE2=Baby I Make Everything All Right
TTITLE3=No More Sufferin'
TTITLE4=Five Long Years
TTITLE5=Ain't Got Nothin' But The Blues
TTITLE6=Wee Wee Hours
TTITLE7=Memphis Blues
TTITLE8=Drivin' Wheel
TTITLE9=Woke Up This Mornin'
TTITLE10=Left My Home
EXTD=
EXTT0=
EXTT1=
EXTT2=
EXTT3=
EXTT4=
EXTT5=
EXTT6=
EXTT7=
EXTT8=
EXTT9=
EXTT10=
PLAYORDER=
